<svg xmlns="http://www.w3.org/2000/svg" viewBox="0 0 512 512" role="img" aria-label="SafeZone icon">
  <defs>
    <linearGradient id="g" x1="0" x2="1" y1="0" y2="1">
      <stop offset="0%" stop-color="#38bdf8"/>
      <stop offset="100%" stop-color="#22c55e"/>
    </linearGradient>
  </defs>
  <rect width="512" height="512" rx="112" fill="#0a0e17"/>
  <path d="M256 72l132 46v95c0 90-57 156-132 208-75-52-132-118-132-208v-95l132-46z" fill="url(#g)"/>
  <path d="M256 156c-40 0-72 32-72 72s32 72 72 72 72-32 72-72-32-72-72-72zm0 32c23 0 40 17 40 40s-17 40-40 40-40-17-40-40 17-40 40-40z" fill="#0a0e17" opacity="0.92"/>
</svg>